<?xml version="1.0" encoding="utf-8" standalone="no"?>
<!DOCTYPE svg PUBLIC "-//W3C//DTD SVG 1.1//EN"
  "http://www.w3.org/Graphics/SVG/1.1/DTD/svg11.dtd">
<!-- Created with matplotlib (https://matplotlib.org/) -->
<svg height="389.327187pt" version="1.1" viewBox="0 0 600.222188 389.327187" width="600.222188pt" xmlns="http://www.w3.org/2000/svg" xmlns:xlink="http://www.w3.org/1999/xlink">
 <metadata>
  <rdf:RDF xmlns:cc="http://creativecommons.org/ns#" xmlns:dc="http://purl.org/dc/elements/1.1/" xmlns:rdf="http://www.w3.org/1999/02/22-rdf-syntax-ns#">
   <cc:Work>
    <dc:type rdf:resource="http://purl.org/dc/dcmitype/StillImage"/>
    <dc:date>2021-07-30T10:15:42.661833</dc:date>
    <dc:format>image/svg+xml</dc:format>
    <dc:creator>
     <cc:Agent>
      <dc:title>Matplotlib v3.3.4, https://matplotlib.org/</dc:title>
     </cc:Agent>
    </dc:creator>
   </cc:Work>
  </rdf:RDF>
 </metadata>
 <defs>
  <style type="text/css">*{stroke-linecap:butt;stroke-linejoin:round;}</style>
 </defs>
 <g id="figure_1">
  <g id="patch_1">
   <path d="M -0 389.327187 
L 600.222188 389.327187 
L 600.222188 0 
L -0 0 
z
" style="fill:#ffffff;"/>
  </g>
  <g id="axes_1">
   <g id="patch_2">
    <path d="M 35.022188 351.0075 
L 593.022187 351.0075 
L 593.022187 24.8475 
L 35.022188 24.8475 
z
" style="fill:#eaeaf2;"/>
   </g>
   <g id="matplotlib.axis_1">
    <g id="xtick_1">
     <g id="line2d_1">
      <path clip-path="url(#p7d77120e20)" d="M 59.458169 351.0075 
L 59.458169 24.8475 
" style="fill:none;stroke:#ffffff;stroke-linecap:round;"/>
     </g>
     <g id="line2d_2"/>
     <g id="text_1">
      <!-- 1975 -->
      <g style="fill:#262626;" transform="translate(48.336294 365.165312)scale(0.1 -0.1)">
       <defs>
        <path d="M 37.25 0 
L 28.46875 0 
L 28.46875 56 
Q 25.296875 52.984375 20.140625 49.953125 
Q 14.984375 46.921875 10.890625 45.40625 
L 10.890625 53.90625 
Q 18.265625 57.375 23.78125 62.296875 
Q 29.296875 67.234375 31.59375 71.875 
L 37.25 71.875 
z
" id="ArialMT-49"/>
        <path d="M 5.46875 16.546875 
L 13.921875 17.328125 
Q 14.984375 11.375 18.015625 8.6875 
Q 21.046875 6 25.78125 6 
Q 29.828125 6 32.875 7.859375 
Q 35.9375 9.71875 37.890625 12.8125 
Q 39.84375 15.921875 41.15625 21.1875 
Q 42.484375 26.46875 42.484375 31.9375 
Q 42.484375 32.515625 42.4375 33.6875 
Q 39.796875 29.5 35.234375 26.875 
Q 30.671875 24.265625 25.34375 24.265625 
Q 16.453125 24.265625 10.296875 30.703125 
Q 4.15625 37.15625 4.15625 47.703125 
Q 4.15625 58.59375 10.578125 65.234375 
Q 17 71.875 26.65625 71.875 
Q 33.640625 71.875 39.421875 68.109375 
Q 45.21875 64.359375 48.21875 57.390625 
Q 51.21875 50.4375 51.21875 37.25 
Q 51.21875 23.53125 48.234375 15.40625 
Q 45.265625 7.28125 39.375 3.03125 
Q 33.5 -1.21875 25.59375 -1.21875 
Q 17.1875 -1.21875 11.859375 3.4375 
Q 6.546875 8.109375 5.46875 16.546875 
z
M 41.453125 48.140625 
Q 41.453125 55.71875 37.421875 60.15625 
Q 33.40625 64.59375 27.734375 64.59375 
Q 21.875 64.59375 17.53125 59.8125 
Q 13.1875 55.03125 13.1875 47.40625 
Q 13.1875 40.578125 17.3125 36.296875 
Q 21.4375 32.03125 27.484375 32.03125 
Q 33.59375 32.03125 37.515625 36.296875 
Q 41.453125 40.578125 41.453125 48.140625 
z
" id="ArialMT-57"/>
        <path d="M 4.734375 62.203125 
L 4.734375 70.65625 
L 51.078125 70.65625 
L 51.078125 63.8125 
Q 44.234375 56.546875 37.515625 44.484375 
Q 30.8125 32.421875 27.15625 19.671875 
Q 24.515625 10.6875 23.78125 0 
L 14.75 0 
Q 14.890625 8.453125 18.0625 20.40625 
Q 21.234375 32.375 27.171875 43.484375 
Q 33.109375 54.59375 39.796875 62.203125 
z
" id="ArialMT-55"/>
        <path d="M 4.15625 18.75 
L 13.375 19.53125 
Q 14.40625 12.796875 18.140625 9.390625 
Q 21.875 6 27.15625 6 
Q 33.5 6 37.890625 10.78125 
Q 42.28125 15.578125 42.28125 23.484375 
Q 42.28125 31 38.0625 35.34375 
Q 33.84375 39.703125 27 39.703125 
Q 22.75 39.703125 19.328125 37.765625 
Q 15.921875 35.84375 13.96875 32.765625 
L 5.71875 33.84375 
L 12.640625 70.609375 
L 48.25 70.609375 
L 48.25 62.203125 
L 19.671875 62.203125 
L 15.828125 42.96875 
Q 22.265625 47.46875 29.34375 47.46875 
Q 38.71875 47.46875 45.15625 40.96875 
Q 51.609375 34.46875 51.609375 24.265625 
Q 51.609375 14.546875 45.953125 7.46875 
Q 39.0625 -1.21875 27.15625 -1.21875 
Q 17.390625 -1.21875 11.203125 4.25 
Q 5.03125 9.71875 4.15625 18.75 
z
" id="ArialMT-53"/>
       </defs>
       <use xlink:href="#ArialMT-49"/>
       <use x="55.615234" xlink:href="#ArialMT-57"/>
       <use x="111.230469" xlink:href="#ArialMT-55"/>
       <use x="166.845703" xlink:href="#ArialMT-53"/>
      </g>
     </g>
    </g>
    <g id="xtick_2">
     <g id="line2d_3">
      <path clip-path="url(#p7d77120e20)" d="M 115.921442 351.0075 
L 115.921442 24.8475 
" style="fill:none;stroke:#ffffff;stroke-linecap:round;"/>
     </g>
     <g id="line2d_4"/>
     <g id="text_2">
      <!-- 1980 -->
      <g style="fill:#262626;" transform="translate(104.799567 365.165312)scale(0.1 -0.1)">
       <defs>
        <path d="M 17.671875 38.8125 
Q 12.203125 40.828125 9.5625 44.53125 
Q 6.9375 48.25 6.9375 53.421875 
Q 6.9375 61.234375 12.546875 66.546875 
Q 18.171875 71.875 27.484375 71.875 
Q 36.859375 71.875 42.578125 66.421875 
Q 48.296875 60.984375 48.296875 53.171875 
Q 48.296875 48.1875 45.671875 44.5 
Q 43.0625 40.828125 37.75 38.8125 
Q 44.34375 36.671875 47.78125 31.875 
Q 51.21875 27.09375 51.21875 20.453125 
Q 51.21875 11.28125 44.71875 5.03125 
Q 38.234375 -1.21875 27.640625 -1.21875 
Q 17.046875 -1.21875 10.546875 5.046875 
Q 4.046875 11.328125 4.046875 20.703125 
Q 4.046875 27.6875 7.59375 32.390625 
Q 11.140625 37.109375 17.671875 38.8125 
z
M 15.921875 53.71875 
Q 15.921875 48.640625 19.1875 45.40625 
Q 22.46875 42.1875 27.6875 42.1875 
Q 32.765625 42.1875 36.015625 45.375 
Q 39.265625 48.578125 39.265625 53.21875 
Q 39.265625 58.0625 35.90625 61.359375 
Q 32.5625 64.65625 27.59375 64.65625 
Q 22.5625 64.65625 19.234375 61.421875 
Q 15.921875 58.203125 15.921875 53.71875 
z
M 13.09375 20.65625 
Q 13.09375 16.890625 14.875 13.375 
Q 16.65625 9.859375 20.171875 7.921875 
Q 23.6875 6 27.734375 6 
Q 34.03125 6 38.125 10.046875 
Q 42.234375 14.109375 42.234375 20.359375 
Q 42.234375 26.703125 38.015625 30.859375 
Q 33.796875 35.015625 27.4375 35.015625 
Q 21.234375 35.015625 17.15625 30.90625 
Q 13.09375 26.8125 13.09375 20.65625 
z
" id="ArialMT-56"/>
        <path d="M 4.15625 35.296875 
Q 4.15625 48 6.765625 55.734375 
Q 9.375 63.484375 14.515625 67.671875 
Q 19.671875 71.875 27.484375 71.875 
Q 33.25 71.875 37.59375 69.546875 
Q 41.9375 67.234375 44.765625 62.859375 
Q 47.609375 58.5 49.21875 52.21875 
Q 50.828125 45.953125 50.828125 35.296875 
Q 50.828125 22.703125 48.234375 14.96875 
Q 45.65625 7.234375 40.5 3 
Q 35.359375 -1.21875 27.484375 -1.21875 
Q 17.140625 -1.21875 11.234375 6.203125 
Q 4.15625 15.140625 4.15625 35.296875 
z
M 13.1875 35.296875 
Q 13.1875 17.671875 17.3125 11.828125 
Q 21.4375 6 27.484375 6 
Q 33.546875 6 37.671875 11.859375 
Q 41.796875 17.71875 41.796875 35.296875 
Q 41.796875 52.984375 37.671875 58.78125 
Q 33.546875 64.59375 27.390625 64.59375 
Q 21.34375 64.59375 17.71875 59.46875 
Q 13.1875 52.9375 13.1875 35.296875 
z
" id="ArialMT-48"/>
       </defs>
       <use xlink:href="#ArialMT-49"/>
       <use x="55.615234" xlink:href="#ArialMT-57"/>
       <use x="111.230469" xlink:href="#ArialMT-56"/>
       <use x="166.845703" xlink:href="#ArialMT-48"/>
      </g>
     </g>
    </g>
    <g id="xtick_3">
     <g id="line2d_5">
      <path clip-path="url(#p7d77120e20)" d="M 172.415637 351.0075 
L 172.415637 24.8475 
" style="fill:none;stroke:#ffffff;stroke-linecap:round;"/>
     </g>
     <g id="line2d_6"/>
     <g id="text_3">
      <!-- 1985 -->
      <g style="fill:#262626;" transform="translate(161.293762 365.165312)scale(0.1 -0.1)">
       <use xlink:href="#ArialMT-49"/>
       <use x="55.615234" xlink:href="#ArialMT-57"/>
       <use x="111.230469" xlink:href="#ArialMT-56"/>
       <use x="166.845703" xlink:href="#ArialMT-53"/>
      </g>
     </g>
    </g>
    <g id="xtick_4">
     <g id="line2d_7">
      <path clip-path="url(#p7d77120e20)" d="M 228.878911 351.0075 
L 228.878911 24.8475 
" style="fill:none;stroke:#ffffff;stroke-linecap:round;"/>
     </g>
     <g id="line2d_8"/>
     <g id="text_4">
      <!-- 1990 -->
      <g style="fill:#262626;" transform="translate(217.757036 365.165312)scale(0.1 -0.1)">
       <use xlink:href="#ArialMT-49"/>
       <use x="55.615234" xlink:href="#ArialMT-57"/>
       <use x="111.230469" xlink:href="#ArialMT-57"/>
       <use x="166.845703" xlink:href="#ArialMT-48"/>
      </g>
     </g>
    </g>
    <g id="xtick_5">
     <g id="line2d_9">
      <path clip-path="url(#p7d77120e20)" d="M 285.342184 351.0075 
L 285.342184 24.8475 
" style="fill:none;stroke:#ffffff;stroke-linecap:round;"/>
     </g>
     <g id="line2d_10"/>
     <g id="text_5">
      <!-- 1995 -->
      <g style="fill:#262626;" transform="translate(274.220309 365.165312)scale(0.1 -0.1)">
       <use xlink:href="#ArialMT-49"/>
       <use x="55.615234" xlink:href="#ArialMT-57"/>
       <use x="111.230469" xlink:href="#ArialMT-57"/>
       <use x="166.845703" xlink:href="#ArialMT-53"/>
      </g>
     </g>
    </g>
    <g id="xtick_6">
     <g id="line2d_11">
      <path clip-path="url(#p7d77120e20)" d="M 341.805458 351.0075 
L 341.805458 24.8475 
" style="fill:none;stroke:#ffffff;stroke-linecap:round;"/>
     </g>
     <g id="line2d_12"/>
     <g id="text_6">
      <!-- 2000 -->
      <g style="fill:#262626;" transform="translate(330.683583 365.165312)scale(0.1 -0.1)">
       <defs>
        <path d="M 50.34375 8.453125 
L 50.34375 0 
L 3.03125 0 
Q 2.9375 3.171875 4.046875 6.109375 
Q 5.859375 10.9375 9.828125 15.625 
Q 13.8125 20.3125 21.34375 26.46875 
Q 33.015625 36.03125 37.109375 41.625 
Q 41.21875 47.21875 41.21875 52.203125 
Q 41.21875 57.421875 37.46875 61 
Q 33.734375 64.59375 27.734375 64.59375 
Q 21.390625 64.59375 17.578125 60.78125 
Q 13.765625 56.984375 13.71875 50.25 
L 4.6875 51.171875 
Q 5.609375 61.28125 11.65625 66.578125 
Q 17.71875 71.875 27.9375 71.875 
Q 38.234375 71.875 44.234375 66.15625 
Q 50.25 60.453125 50.25 52 
Q 50.25 47.703125 48.484375 43.546875 
Q 46.734375 39.40625 42.65625 34.8125 
Q 38.578125 30.21875 29.109375 22.21875 
Q 21.1875 15.578125 18.9375 13.203125 
Q 16.703125 10.84375 15.234375 8.453125 
z
" id="ArialMT-50"/>
       </defs>
       <use xlink:href="#ArialMT-50"/>
       <use x="55.615234" xlink:href="#ArialMT-48"/>
       <use x="111.230469" xlink:href="#ArialMT-48"/>
       <use x="166.845703" xlink:href="#ArialMT-48"/>
      </g>
     </g>
    </g>
    <g id="xtick_7">
     <g id="line2d_13">
      <path clip-path="url(#p7d77120e20)" d="M 398.299653 351.0075 
L 398.299653 24.8475 
" style="fill:none;stroke:#ffffff;stroke-linecap:round;"/>
     </g>
     <g id="line2d_14"/>
     <g id="text_7">
      <!-- 2005 -->
      <g style="fill:#262626;" transform="translate(387.177778 365.165312)scale(0.1 -0.1)">
       <use xlink:href="#ArialMT-50"/>
       <use x="55.615234" xlink:href="#ArialMT-48"/>
       <use x="111.230469" xlink:href="#ArialMT-48"/>
       <use x="166.845703" xlink:href="#ArialMT-53"/>
      </g>
     </g>
    </g>
    <g id="xtick_8">
     <g id="line2d_15">
      <path clip-path="url(#p7d77120e20)" d="M 454.762926 351.0075 
L 454.762926 24.8475 
" style="fill:none;stroke:#ffffff;stroke-linecap:round;"/>
     </g>
     <g id="line2d_16"/>
     <g id="text_8">
      <!-- 2010 -->
      <g style="fill:#262626;" transform="translate(443.641051 365.165312)scale(0.1 -0.1)">
       <use xlink:href="#ArialMT-50"/>
       <use x="55.615234" xlink:href="#ArialMT-48"/>
       <use x="111.230469" xlink:href="#ArialMT-49"/>
       <use x="166.845703" xlink:href="#ArialMT-48"/>
      </g>
     </g>
    </g>
    <g id="xtick_9">
     <g id="line2d_17">
      <path clip-path="url(#p7d77120e20)" d="M 511.2262 351.0075 
L 511.2262 24.8475 
" style="fill:none;stroke:#ffffff;stroke-linecap:round;"/>
     </g>
     <g id="line2d_18"/>
     <g id="text_9">
      <!-- 2015 -->
      <g style="fill:#262626;" transform="translate(500.104325 365.165312)scale(0.1 -0.1)">
       <use xlink:href="#ArialMT-50"/>
       <use x="55.615234" xlink:href="#ArialMT-48"/>
       <use x="111.230469" xlink:href="#ArialMT-49"/>
       <use x="166.845703" xlink:href="#ArialMT-53"/>
      </g>
     </g>
    </g>
    <g id="xtick_10">
     <g id="line2d_19">
      <path clip-path="url(#p7d77120e20)" d="M 567.689473 351.0075 
L 567.689473 24.8475 
" style="fill:none;stroke:#ffffff;stroke-linecap:round;"/>
     </g>
     <g id="line2d_20"/>
     <g id="text_10">
      <!-- 2020 -->
      <g style="fill:#262626;" transform="translate(556.567598 365.165312)scale(0.1 -0.1)">
       <use xlink:href="#ArialMT-50"/>
       <use x="55.615234" xlink:href="#ArialMT-48"/>
       <use x="111.230469" xlink:href="#ArialMT-50"/>
       <use x="166.845703" xlink:href="#ArialMT-48"/>
      </g>
     </g>
    </g>
    <g id="text_11">
     <!-- Date -->
     <g style="fill:#262626;" transform="translate(301.349062 379.742187)scale(0.12 -0.12)">
      <defs>
       <path d="M 7.71875 0 
L 7.71875 71.578125 
L 32.375 71.578125 
Q 40.71875 71.578125 45.125 70.5625 
Q 51.265625 69.140625 55.609375 65.4375 
Q 61.28125 60.640625 64.078125 53.1875 
Q 66.890625 45.75 66.890625 36.1875 
Q 66.890625 28.03125 64.984375 21.734375 
Q 63.09375 15.4375 60.109375 11.296875 
Q 57.125 7.171875 53.578125 4.796875 
Q 50.046875 2.4375 45.046875 1.21875 
Q 40.046875 0 33.546875 0 
z
M 17.1875 8.453125 
L 32.46875 8.453125 
Q 39.546875 8.453125 43.578125 9.765625 
Q 47.609375 11.078125 50 13.484375 
Q 53.375 16.84375 55.25 22.53125 
Q 57.125 28.21875 57.125 36.328125 
Q 57.125 47.5625 53.4375 53.59375 
Q 49.75 59.625 44.484375 61.671875 
Q 40.671875 63.140625 32.234375 63.140625 
L 17.1875 63.140625 
z
" id="ArialMT-68"/>
       <path d="M 40.4375 6.390625 
Q 35.546875 2.25 31.03125 0.53125 
Q 26.515625 -1.171875 21.34375 -1.171875 
Q 12.796875 -1.171875 8.203125 3 
Q 3.609375 7.171875 3.609375 13.671875 
Q 3.609375 17.484375 5.34375 20.625 
Q 7.078125 23.78125 9.890625 25.6875 
Q 12.703125 27.59375 16.21875 28.5625 
Q 18.796875 29.25 24.03125 29.890625 
Q 34.671875 31.15625 39.703125 32.90625 
Q 39.75 34.71875 39.75 35.203125 
Q 39.75 40.578125 37.25 42.78125 
Q 33.890625 45.75 27.25 45.75 
Q 21.046875 45.75 18.09375 43.578125 
Q 15.140625 41.40625 13.71875 35.890625 
L 5.125 37.0625 
Q 6.296875 42.578125 8.984375 45.96875 
Q 11.671875 49.359375 16.75 51.1875 
Q 21.828125 53.03125 28.515625 53.03125 
Q 35.15625 53.03125 39.296875 51.46875 
Q 43.453125 49.90625 45.40625 47.53125 
Q 47.359375 45.171875 48.140625 41.546875 
Q 48.578125 39.3125 48.578125 33.453125 
L 48.578125 21.734375 
Q 48.578125 9.46875 49.140625 6.21875 
Q 49.703125 2.984375 51.375 0 
L 42.1875 0 
Q 40.828125 2.734375 40.4375 6.390625 
z
M 39.703125 26.03125 
Q 34.90625 24.078125 25.34375 22.703125 
Q 19.921875 21.921875 17.671875 20.9375 
Q 15.4375 19.96875 14.203125 18.09375 
Q 12.984375 16.21875 12.984375 13.921875 
Q 12.984375 10.40625 15.640625 8.0625 
Q 18.3125 5.71875 23.4375 5.71875 
Q 28.515625 5.71875 32.46875 7.9375 
Q 36.421875 10.15625 38.28125 14.015625 
Q 39.703125 17 39.703125 22.796875 
z
" id="ArialMT-97"/>
       <path d="M 25.78125 7.859375 
L 27.046875 0.09375 
Q 23.34375 -0.6875 20.40625 -0.6875 
Q 15.625 -0.6875 12.984375 0.828125 
Q 10.359375 2.34375 9.28125 4.8125 
Q 8.203125 7.28125 8.203125 15.1875 
L 8.203125 45.015625 
L 1.765625 45.015625 
L 1.765625 51.859375 
L 8.203125 51.859375 
L 8.203125 64.703125 
L 16.9375 69.96875 
L 16.9375 51.859375 
L 25.78125 51.859375 
L 25.78125 45.015625 
L 16.9375 45.015625 
L 16.9375 14.703125 
Q 16.9375 10.9375 17.40625 9.859375 
Q 17.875 8.796875 18.921875 8.15625 
Q 19.96875 7.515625 21.921875 7.515625 
Q 23.390625 7.515625 25.78125 7.859375 
z
" id="ArialMT-116"/>
       <path d="M 42.09375 16.703125 
L 51.171875 15.578125 
Q 49.03125 7.625 43.21875 3.21875 
Q 37.40625 -1.171875 28.375 -1.171875 
Q 17 -1.171875 10.328125 5.828125 
Q 3.65625 12.84375 3.65625 25.484375 
Q 3.65625 38.578125 10.390625 45.796875 
Q 17.140625 53.03125 27.875 53.03125 
Q 38.28125 53.03125 44.875 45.953125 
Q 51.46875 38.875 51.46875 26.03125 
Q 51.46875 25.25 51.421875 23.6875 
L 12.75 23.6875 
Q 13.234375 15.140625 17.578125 10.59375 
Q 21.921875 6.0625 28.421875 6.0625 
Q 33.25 6.0625 36.671875 8.59375 
Q 40.09375 11.140625 42.09375 16.703125 
z
M 13.234375 30.90625 
L 42.1875 30.90625 
Q 41.609375 37.453125 38.875 40.71875 
Q 34.671875 45.796875 27.984375 45.796875 
Q 21.921875 45.796875 17.796875 41.75 
Q 13.671875 37.703125 13.234375 30.90625 
z
" id="ArialMT-101"/>
      </defs>
      <use xlink:href="#ArialMT-68"/>
      <use x="72.216797" xlink:href="#ArialMT-97"/>
      <use x="127.832031" xlink:href="#ArialMT-116"/>
      <use x="155.615234" xlink:href="#ArialMT-101"/>
     </g>
    </g>
   </g>
   <g id="matplotlib.axis_2">
    <g id="ytick_1">
     <g id="line2d_21">
      <path clip-path="url(#p7d77120e20)" d="M 35.022188 318.257822 
L 593.022187 318.257822 
" style="fill:none;stroke:#ffffff;stroke-linecap:round;"/>
     </g>
     <g id="line2d_22"/>
     <g id="text_12">
      <!-- 0 -->
      <g style="fill:#262626;" transform="translate(22.46125 321.836729)scale(0.1 -0.1)">
       <use xlink:href="#ArialMT-48"/>
      </g>
     </g>
    </g>
    <g id="ytick_2">
     <g id="line2d_23">
      <path clip-path="url(#p7d77120e20)" d="M 35.022188 269.821438 
L 593.022187 269.821438 
" style="fill:none;stroke:#ffffff;stroke-linecap:round;"/>
     </g>
     <g id="line2d_24"/>
     <g id="text_13">
      <!-- 1 -->
      <g style="fill:#262626;" transform="translate(22.46125 273.400344)scale(0.1 -0.1)">
       <use xlink:href="#ArialMT-49"/>
      </g>
     </g>
    </g>
    <g id="ytick_3">
     <g id="line2d_25">
      <path clip-path="url(#p7d77120e20)" d="M 35.022188 221.385054 
L 593.022187 221.385054 
" style="fill:none;stroke:#ffffff;stroke-linecap:round;"/>
     </g>
     <g id="line2d_26"/>
     <g id="text_14">
      <!-- 2 -->
      <g style="fill:#262626;" transform="translate(22.46125 224.96396)scale(0.1 -0.1)">
       <use xlink:href="#ArialMT-50"/>
      </g>
     </g>
    </g>
    <g id="ytick_4">
     <g id="line2d_27">
      <path clip-path="url(#p7d77120e20)" d="M 35.022188 172.948669 
L 593.022187 172.948669 
" style="fill:none;stroke:#ffffff;stroke-linecap:round;"/>
     </g>
     <g id="line2d_28"/>
     <g id="text_15">
      <!-- 3 -->
      <g style="fill:#262626;" transform="translate(22.46125 176.527575)scale(0.1 -0.1)">
       <defs>
        <path d="M 4.203125 18.890625 
L 12.984375 20.0625 
Q 14.5 12.59375 18.140625 9.296875 
Q 21.78125 6 27 6 
Q 33.203125 6 37.46875 10.296875 
Q 41.75 14.59375 41.75 20.953125 
Q 41.75 27 37.796875 30.921875 
Q 33.84375 34.859375 27.734375 34.859375 
Q 25.25 34.859375 21.53125 33.890625 
L 22.515625 41.609375 
Q 23.390625 41.5 23.921875 41.5 
Q 29.546875 41.5 34.03125 44.421875 
Q 38.53125 47.359375 38.53125 53.46875 
Q 38.53125 58.296875 35.25 61.46875 
Q 31.984375 64.65625 26.8125 64.65625 
Q 21.6875 64.65625 18.265625 61.421875 
Q 14.84375 58.203125 13.875 51.765625 
L 5.078125 53.328125 
Q 6.6875 62.15625 12.390625 67.015625 
Q 18.109375 71.875 26.609375 71.875 
Q 32.46875 71.875 37.390625 69.359375 
Q 42.328125 66.84375 44.9375 62.5 
Q 47.5625 58.15625 47.5625 53.265625 
Q 47.5625 48.640625 45.0625 44.828125 
Q 42.578125 41.015625 37.703125 38.765625 
Q 44.046875 37.3125 47.5625 32.6875 
Q 51.078125 28.078125 51.078125 21.140625 
Q 51.078125 11.765625 44.234375 5.25 
Q 37.40625 -1.265625 26.953125 -1.265625 
Q 17.53125 -1.265625 11.296875 4.34375 
Q 5.078125 9.96875 4.203125 18.890625 
z
" id="ArialMT-51"/>
       </defs>
       <use xlink:href="#ArialMT-51"/>
      </g>
     </g>
    </g>
    <g id="ytick_5">
     <g id="line2d_29">
      <path clip-path="url(#p7d77120e20)" d="M 35.022188 124.512285 
L 593.022187 124.512285 
" style="fill:none;stroke:#ffffff;stroke-linecap:round;"/>
     </g>
     <g id="line2d_30"/>
     <g id="text_16">
      <!-- 4 -->
      <g style="fill:#262626;" transform="translate(22.46125 128.091191)scale(0.1 -0.1)">
       <defs>
        <path d="M 32.328125 0 
L 32.328125 17.140625 
L 1.265625 17.140625 
L 1.265625 25.203125 
L 33.9375 71.578125 
L 41.109375 71.578125 
L 41.109375 25.203125 
L 50.78125 25.203125 
L 50.78125 17.140625 
L 41.109375 17.140625 
L 41.109375 0 
z
M 32.328125 25.203125 
L 32.328125 57.46875 
L 9.90625 25.203125 
z
" id="ArialMT-52"/>
       </defs>
       <use xlink:href="#ArialMT-52"/>
      </g>
     </g>
    </g>
    <g id="ytick_6">
     <g id="line2d_31">
      <path clip-path="url(#p7d77120e20)" d="M 35.022188 76.0759 
L 593.022187 76.0759 
" style="fill:none;stroke:#ffffff;stroke-linecap:round;"/>
     </g>
     <g id="line2d_32"/>
     <g id="text_17">
      <!-- 5 -->
      <g style="fill:#262626;" transform="translate(22.46125 79.654807)scale(0.1 -0.1)">
       <use xlink:href="#ArialMT-53"/>
      </g>
     </g>
    </g>
    <g id="ytick_7">
     <g id="line2d_33">
      <path clip-path="url(#p7d77120e20)" d="M 35.022188 27.639516 
L 593.022187 27.639516 
" style="fill:none;stroke:#ffffff;stroke-linecap:round;"/>
     </g>
     <g id="line2d_34"/>
     <g id="text_18">
      <!-- 6 -->
      <g style="fill:#262626;" transform="translate(22.46125 31.218422)scale(0.1 -0.1)">
       <defs>
        <path d="M 49.75 54.046875 
L 41.015625 53.375 
Q 39.84375 58.546875 37.703125 60.890625 
Q 34.125 64.65625 28.90625 64.65625 
Q 24.703125 64.65625 21.53125 62.3125 
Q 17.390625 59.28125 14.984375 53.46875 
Q 12.59375 47.65625 12.5 36.921875 
Q 15.671875 41.75 20.265625 44.09375 
Q 24.859375 46.4375 29.890625 46.4375 
Q 38.671875 46.4375 44.84375 39.96875 
Q 51.03125 33.5 51.03125 23.25 
Q 51.03125 16.5 48.125 10.71875 
Q 45.21875 4.9375 40.140625 1.859375 
Q 35.0625 -1.21875 28.609375 -1.21875 
Q 17.625 -1.21875 10.6875 6.859375 
Q 3.765625 14.9375 3.765625 33.5 
Q 3.765625 54.25 11.421875 63.671875 
Q 18.109375 71.875 29.4375 71.875 
Q 37.890625 71.875 43.28125 67.140625 
Q 48.6875 62.40625 49.75 54.046875 
z
M 13.875 23.1875 
Q 13.875 18.65625 15.796875 14.5 
Q 17.71875 10.359375 21.1875 8.171875 
Q 24.65625 6 28.46875 6 
Q 34.03125 6 38.03125 10.484375 
Q 42.046875 14.984375 42.046875 22.703125 
Q 42.046875 30.125 38.078125 34.390625 
Q 34.125 38.671875 28.125 38.671875 
Q 22.171875 38.671875 18.015625 34.390625 
Q 13.875 30.125 13.875 23.1875 
z
" id="ArialMT-54"/>
       </defs>
       <use xlink:href="#ArialMT-54"/>
      </g>
     </g>
    </g>
    <g id="text_19">
     <!-- Cumulative Returns (Absolute) -->
     <g style="fill:#262626;" transform="translate(15.935625 269.623125)rotate(-90)scale(0.12 -0.12)">
      <defs>
       <path d="M 58.796875 25.09375 
L 68.265625 22.703125 
Q 65.28125 11.03125 57.546875 4.90625 
Q 49.8125 -1.21875 38.625 -1.21875 
Q 27.046875 -1.21875 19.796875 3.484375 
Q 12.546875 8.203125 8.765625 17.140625 
Q 4.984375 26.078125 4.984375 36.328125 
Q 4.984375 47.515625 9.25 55.828125 
Q 13.53125 64.15625 21.40625 68.46875 
Q 29.296875 72.796875 38.765625 72.796875 
Q 49.515625 72.796875 56.828125 67.328125 
Q 64.15625 61.859375 67.046875 51.953125 
L 57.71875 49.75 
Q 55.21875 57.5625 50.484375 61.125 
Q 45.75 64.703125 38.578125 64.703125 
Q 30.328125 64.703125 24.78125 60.734375 
Q 19.234375 56.78125 16.984375 50.109375 
Q 14.75 43.453125 14.75 36.375 
Q 14.75 27.25 17.40625 20.4375 
Q 20.0625 13.625 25.671875 10.25 
Q 31.296875 6.890625 37.84375 6.890625 
Q 45.796875 6.890625 51.3125 11.46875 
Q 56.84375 16.0625 58.796875 25.09375 
z
" id="ArialMT-67"/>
       <path d="M 40.578125 0 
L 40.578125 7.625 
Q 34.515625 -1.171875 24.125 -1.171875 
Q 19.53125 -1.171875 15.546875 0.578125 
Q 11.578125 2.34375 9.640625 5 
Q 7.71875 7.671875 6.9375 11.53125 
Q 6.390625 14.109375 6.390625 19.734375 
L 6.390625 51.859375 
L 15.1875 51.859375 
L 15.1875 23.09375 
Q 15.1875 16.21875 15.71875 13.8125 
Q 16.546875 10.359375 19.234375 8.375 
Q 21.921875 6.390625 25.875 6.390625 
Q 29.828125 6.390625 33.296875 8.421875 
Q 36.765625 10.453125 38.203125 13.9375 
Q 39.65625 17.4375 39.65625 24.078125 
L 39.65625 51.859375 
L 48.4375 51.859375 
L 48.4375 0 
z
" id="ArialMT-117"/>
       <path d="M 6.59375 0 
L 6.59375 51.859375 
L 14.453125 51.859375 
L 14.453125 44.578125 
Q 16.890625 48.390625 20.9375 50.703125 
Q 25 53.03125 30.171875 53.03125 
Q 35.9375 53.03125 39.625 50.640625 
Q 43.3125 48.25 44.828125 43.953125 
Q 50.984375 53.03125 60.84375 53.03125 
Q 68.5625 53.03125 72.703125 48.75 
Q 76.859375 44.484375 76.859375 35.59375 
L 76.859375 0 
L 68.109375 0 
L 68.109375 32.671875 
Q 68.109375 37.9375 67.25 40.25 
Q 66.40625 42.578125 64.15625 43.984375 
Q 61.921875 45.40625 58.890625 45.40625 
Q 53.421875 45.40625 49.796875 41.765625 
Q 46.1875 38.140625 46.1875 30.125 
L 46.1875 0 
L 37.40625 0 
L 37.40625 33.6875 
Q 37.40625 39.546875 35.25 42.46875 
Q 33.109375 45.40625 28.21875 45.40625 
Q 24.515625 45.40625 21.359375 43.453125 
Q 18.21875 41.5 16.796875 37.734375 
Q 15.375 33.984375 15.375 26.90625 
L 15.375 0 
z
" id="ArialMT-109"/>
       <path d="M 6.390625 0 
L 6.390625 71.578125 
L 15.1875 71.578125 
L 15.1875 0 
z
" id="ArialMT-108"/>
       <path d="M 6.640625 61.46875 
L 6.640625 71.578125 
L 15.4375 71.578125 
L 15.4375 61.46875 
z
M 6.640625 0 
L 6.640625 51.859375 
L 15.4375 51.859375 
L 15.4375 0 
z
" id="ArialMT-105"/>
       <path d="M 21 0 
L 1.265625 51.859375 
L 10.546875 51.859375 
L 21.6875 20.796875 
Q 23.484375 15.765625 25 10.359375 
Q 26.171875 14.453125 28.265625 20.21875 
L 39.796875 51.859375 
L 48.828125 51.859375 
L 29.203125 0 
z
" id="ArialMT-118"/>
       <path id="ArialMT-32"/>
       <path d="M 7.859375 0 
L 7.859375 71.578125 
L 39.59375 71.578125 
Q 49.171875 71.578125 54.140625 69.640625 
Q 59.125 67.71875 62.109375 62.828125 
Q 65.09375 57.953125 65.09375 52.046875 
Q 65.09375 44.4375 60.15625 39.203125 
Q 55.21875 33.984375 44.921875 32.5625 
Q 48.6875 30.765625 50.640625 29 
Q 54.78125 25.203125 58.5 19.484375 
L 70.953125 0 
L 59.03125 0 
L 49.5625 14.890625 
Q 45.40625 21.34375 42.71875 24.75 
Q 40.046875 28.171875 37.921875 29.53125 
Q 35.796875 30.90625 33.59375 31.453125 
Q 31.984375 31.78125 28.328125 31.78125 
L 17.328125 31.78125 
L 17.328125 0 
z
M 17.328125 39.984375 
L 37.703125 39.984375 
Q 44.1875 39.984375 47.84375 41.328125 
Q 51.515625 42.671875 53.421875 45.625 
Q 55.328125 48.578125 55.328125 52.046875 
Q 55.328125 57.125 51.640625 60.390625 
Q 47.953125 63.671875 39.984375 63.671875 
L 17.328125 63.671875 
z
" id="ArialMT-82"/>
       <path d="M 6.5 0 
L 6.5 51.859375 
L 14.40625 51.859375 
L 14.40625 44 
Q 17.4375 49.515625 20 51.265625 
Q 22.5625 53.03125 25.640625 53.03125 
Q 30.078125 53.03125 34.671875 50.203125 
L 31.640625 42.046875 
Q 28.421875 43.953125 25.203125 43.953125 
Q 22.3125 43.953125 20.015625 42.21875 
Q 17.71875 40.484375 16.75 37.40625 
Q 15.28125 32.71875 15.28125 27.15625 
L 15.28125 0 
z
" id="ArialMT-114"/>
       <path d="M 6.59375 0 
L 6.59375 51.859375 
L 14.5 51.859375 
L 14.5 44.484375 
Q 20.21875 53.03125 31 53.03125 
Q 35.6875 53.03125 39.625 51.34375 
Q 43.5625 49.65625 45.515625 46.921875 
Q 47.46875 44.1875 48.25 40.4375 
Q 48.734375 37.984375 48.734375 31.890625 
L 48.734375 0 
L 39.9375 0 
L 39.9375 31.546875 
Q 39.9375 36.921875 38.90625 39.578125 
Q 37.890625 42.234375 35.28125 43.8125 
Q 32.671875 45.40625 29.15625 45.40625 
Q 23.53125 45.40625 19.453125 41.84375 
Q 15.375 38.28125 15.375 28.328125 
L 15.375 0 
z
" id="ArialMT-110"/>
       <path d="M 3.078125 15.484375 
L 11.765625 16.84375 
Q 12.5 11.625 15.84375 8.84375 
Q 19.1875 6.0625 25.203125 6.0625 
Q 31.25 6.0625 34.171875 8.515625 
Q 37.109375 10.984375 37.109375 14.3125 
Q 37.109375 17.28125 34.515625 19 
Q 32.71875 20.171875 25.53125 21.96875 
Q 15.875 24.421875 12.140625 26.203125 
Q 8.40625 27.984375 6.46875 31.125 
Q 4.546875 34.28125 4.546875 38.09375 
Q 4.546875 41.546875 6.125 44.5 
Q 7.71875 47.46875 10.453125 49.421875 
Q 12.5 50.921875 16.03125 51.96875 
Q 19.578125 53.03125 23.640625 53.03125 
Q 29.734375 53.03125 34.34375 51.265625 
Q 38.96875 49.515625 41.15625 46.5 
Q 43.359375 43.5 44.1875 38.484375 
L 35.59375 37.3125 
Q 35.015625 41.3125 32.203125 43.546875 
Q 29.390625 45.796875 24.265625 45.796875 
Q 18.21875 45.796875 15.625 43.796875 
Q 13.03125 41.796875 13.03125 39.109375 
Q 13.03125 37.40625 14.109375 36.03125 
Q 15.1875 34.625 17.484375 33.6875 
Q 18.796875 33.203125 25.25 31.453125 
Q 34.578125 28.953125 38.25 27.359375 
Q 41.9375 25.78125 44.03125 22.75 
Q 46.140625 19.734375 46.140625 15.234375 
Q 46.140625 10.84375 43.578125 6.953125 
Q 41.015625 3.078125 36.171875 0.953125 
Q 31.34375 -1.171875 25.25 -1.171875 
Q 15.140625 -1.171875 9.84375 3.03125 
Q 4.546875 7.234375 3.078125 15.484375 
z
" id="ArialMT-115"/>
       <path d="M 23.390625 -21.046875 
Q 16.109375 -11.859375 11.078125 0.4375 
Q 6.0625 12.75 6.0625 25.921875 
Q 6.0625 37.546875 9.8125 48.1875 
Q 14.203125 60.546875 23.390625 72.796875 
L 29.6875 72.796875 
Q 23.78125 62.640625 21.875 58.296875 
Q 18.890625 51.5625 17.1875 44.234375 
Q 15.09375 35.109375 15.09375 25.875 
Q 15.09375 2.390625 29.6875 -21.046875 
z
" id="ArialMT-40"/>
       <path d="M -0.140625 0 
L 27.34375 71.578125 
L 37.546875 71.578125 
L 66.84375 0 
L 56.0625 0 
L 47.703125 21.6875 
L 17.78125 21.6875 
L 9.90625 0 
z
M 20.515625 29.390625 
L 44.78125 29.390625 
L 37.3125 49.21875 
Q 33.890625 58.25 32.234375 64.0625 
Q 30.859375 57.171875 28.375 50.390625 
z
" id="ArialMT-65"/>
       <path d="M 14.703125 0 
L 6.546875 0 
L 6.546875 71.578125 
L 15.328125 71.578125 
L 15.328125 46.046875 
Q 20.90625 53.03125 29.546875 53.03125 
Q 34.328125 53.03125 38.59375 51.09375 
Q 42.875 49.171875 45.625 45.671875 
Q 48.390625 42.1875 49.953125 37.25 
Q 51.515625 32.328125 51.515625 26.703125 
Q 51.515625 13.375 44.921875 6.09375 
Q 38.328125 -1.171875 29.109375 -1.171875 
Q 19.921875 -1.171875 14.703125 6.5 
z
M 14.59375 26.3125 
Q 14.59375 17 17.140625 12.84375 
Q 21.296875 6.0625 28.375 6.0625 
Q 34.125 6.0625 38.328125 11.0625 
Q 42.53125 16.0625 42.53125 25.984375 
Q 42.53125 36.140625 38.5 40.96875 
Q 34.46875 45.796875 28.765625 45.796875 
Q 23 45.796875 18.796875 40.796875 
Q 14.59375 35.796875 14.59375 26.3125 
z
" id="ArialMT-98"/>
       <path d="M 3.328125 25.921875 
Q 3.328125 40.328125 11.328125 47.265625 
Q 18.015625 53.03125 27.640625 53.03125 
Q 38.328125 53.03125 45.109375 46.015625 
Q 51.90625 39.015625 51.90625 26.65625 
Q 51.90625 16.65625 48.90625 10.90625 
Q 45.90625 5.171875 40.15625 2 
Q 34.421875 -1.171875 27.640625 -1.171875 
Q 16.75 -1.171875 10.03125 5.8125 
Q 3.328125 12.796875 3.328125 25.921875 
z
M 12.359375 25.921875 
Q 12.359375 15.96875 16.703125 11.015625 
Q 21.046875 6.0625 27.640625 6.0625 
Q 34.1875 6.0625 38.53125 11.03125 
Q 42.875 16.015625 42.875 26.21875 
Q 42.875 35.84375 38.5 40.796875 
Q 34.125 45.75 27.640625 45.75 
Q 21.046875 45.75 16.703125 40.8125 
Q 12.359375 35.890625 12.359375 25.921875 
z
" id="ArialMT-111"/>
       <path d="M 12.359375 -21.046875 
L 6.0625 -21.046875 
Q 20.65625 2.390625 20.65625 25.875 
Q 20.65625 35.0625 18.5625 44.09375 
Q 16.890625 51.421875 13.921875 58.15625 
Q 12.015625 62.546875 6.0625 72.796875 
L 12.359375 72.796875 
Q 21.53125 60.546875 25.921875 48.1875 
Q 29.6875 37.546875 29.6875 25.921875 
Q 29.6875 12.75 24.625 0.4375 
Q 19.578125 -11.859375 12.359375 -21.046875 
z
" id="ArialMT-41"/>
      </defs>
      <use xlink:href="#ArialMT-67"/>
      <use x="72.216797" xlink:href="#ArialMT-117"/>
      <use x="127.832031" xlink:href="#ArialMT-109"/>
      <use x="211.132812" xlink:href="#ArialMT-117"/>
      <use x="266.748047" xlink:href="#ArialMT-108"/>
      <use x="288.964844" xlink:href="#ArialMT-97"/>
      <use x="344.580078" xlink:href="#ArialMT-116"/>
      <use x="372.363281" xlink:href="#ArialMT-105"/>
      <use x="394.580078" xlink:href="#ArialMT-118"/>
      <use x="444.580078" xlink:href="#ArialMT-101"/>
      <use x="500.195312" xlink:href="#ArialMT-32"/>
      <use x="527.978516" xlink:href="#ArialMT-82"/>
      <use x="600.195312" xlink:href="#ArialMT-101"/>
      <use x="655.810547" xlink:href="#ArialMT-116"/>
      <use x="683.59375" xlink:href="#ArialMT-117"/>
      <use x="739.208984" xlink:href="#ArialMT-114"/>
      <use x="772.509766" xlink:href="#ArialMT-110"/>
      <use x="828.125" xlink:href="#ArialMT-115"/>
      <use x="878.125" xlink:href="#ArialMT-32"/>
      <use x="905.908203" xlink:href="#ArialMT-40"/>
      <use x="939.208984" xlink:href="#ArialMT-65"/>
      <use x="1005.908203" xlink:href="#ArialMT-98"/>
      <use x="1061.523438" xlink:href="#ArialMT-115"/>
      <use x="1111.523438" xlink:href="#ArialMT-111"/>
      <use x="1167.138672" xlink:href="#ArialMT-108"/>
      <use x="1189.355469" xlink:href="#ArialMT-117"/>
      <use x="1244.970703" xlink:href="#ArialMT-116"/>
      <use x="1272.753906" xlink:href="#ArialMT-101"/>
      <use x="1328.369141" xlink:href="#ArialMT-41"/>
     </g>
    </g>
   </g>
   <g id="line2d_35">
    <path clip-path="url(#p7d77120e20)" d="M 60.385824 302.112377 
L 61.251635 304.961599 
L 62.210212 306.08169 
L 63.137867 307.669774 
L 64.096444 296.99735 
L 65.024099 296.647542 
L 65.982676 299.71744 
L 66.941253 299.353247 
L 67.868908 299.338764 
L 68.827485 296.380803 
L 69.75514 291.084139 
L 70.713717 292.046473 
L 71.672294 289.755577 
L 72.569027 293.193011 
L 73.527604 293.125732 
L 74.455259 292.782222 
L 75.413836 292.099995 
L 76.341491 291.696375 
L 77.300068 289.990881 
L 79.1863 282.32035 
L 80.144877 284.626842 
L 81.072532 280.994113 
L 82.031109 278.358254 
L 83.855498 280.281808 
L 84.814075 282.445849 
L 85.74173 281.234939 
L 86.700307 278.872212 
L 88.586539 277.08118 
L 89.545116 278.188291 
L 90.472771 277.803076 
L 91.431348 279.522713 
L 92.359003 277.442612 
L 94.276157 279.937813 
L 95.141968 282.390292 
L 96.100545 281.602378 
L 97.0282 283.552814 
L 97.986777 282.197951 
L 98.914432 282.052981 
L 99.873009 281.043906 
L 100.831586 280.384929 
L 101.759241 280.892058 
L 102.717818 283.919332 
L 103.645473 282.842979 
L 104.60405 286.549428 
L 105.562627 281.471406 
L 106.428438 283.592725 
L 107.387015 281.951071 
L 108.31467 282.318025 
L 109.273247 279.729827 
L 110.200902 279.196349 
L 111.159479 276.703279 
L 112.118056 277.719426 
L 113.045711 280.999248 
L 114.004288 283.668964 
L 114.931943 278.018037 
L 115.89052 280.331407 
L 116.849097 281.893868 
L 117.745831 285.122976 
L 118.704407 285.728431 
L 119.632063 279.390966 
L 120.590639 275.788268 
L 121.518295 272.95658 
L 123.435448 278.156565 
L 124.363104 278.318003 
L 125.32168 280.405757 
L 126.249336 278.660303 
L 127.207912 279.249968 
L 128.166489 278.809633 
L 129.990878 277.113923 
L 130.918533 275.804833 
L 131.87711 273.255529 
L 132.804765 272.884167 
L 133.763342 269.986267 
L 134.721919 269.986267 
L 135.649574 272.3612 
L 136.608151 270.23678 
L 137.535806 263.724314 
L 138.494383 264.327057 
L 139.45296 260.947795 
L 140.318771 258.841878 
L 141.277348 257.052445 
L 142.205003 254.046047 
L 143.16358 255.304133 
L 144.091235 253.909165 
L 145.049812 254.232091 
L 146.008389 246.105192 
L 146.936044 245.325754 
L 147.894621 244.199317 
L 148.822276 241.997641 
L 149.780853 239.154619 
L 150.73943 239.40954 
L 151.605241 237.615602 
L 152.563818 239.394912 
L 153.491473 237.025743 
L 154.45005 235.519953 
L 155.377705 238.976228 
L 156.336282 236.016232 
L 157.294859 234.748265 
L 158.222514 231.239097 
L 160.108746 226.623497 
L 161.067323 227.87209 
L 162.0259 228.324777 
L 162.922634 227.410879 
L 163.881211 229.159965 
L 164.808866 228.68277 
L 165.767443 227.973952 
L 166.695098 229.091718 
L 168.612252 222.927317 
L 169.539907 222.667843 
L 170.498484 220.246024 
L 171.426139 219.407299 
L 172.384716 219.32486 
L 173.343292 218.693105 
L 174.209104 217.23793 
L 175.167681 214.533582 
L 176.095336 213.557056 
L 177.053913 211.25967 
L 177.981568 210.455432 
L 178.940145 214.858735 
L 179.898722 213.647826 
L 180.826377 215.538007 
L 181.784954 211.344385 
L 182.712609 208.835719 
L 183.671186 207.661524 
L 184.629763 204.919831 
L 185.495574 200.59514 
L 186.454151 198.594185 
L 187.381806 198.749423 
L 188.340383 196.41324 
L 189.268038 191.421047 
L 191.185192 184.294602 
L 192.112847 188.706091 
L 193.071424 186.98098 
L 193.999079 186.724703 
L 194.957656 189.294399 
L 195.916233 185.189609 
L 196.782045 187.207808 
L 198.668277 192.130301 
L 199.626853 193.467484 
L 200.554509 191.96397 
L 201.513086 196.792497 
L 202.471662 193.105277 
L 203.399318 194.376151 
L 204.357894 194.213065 
L 205.28555 195.675893 
L 206.244126 193.329489 
L 207.202703 188.926186 
L 208.099437 190.720124 
L 209.058014 191.341127 
L 209.985669 193.105374 
L 210.944246 189.443535 
L 211.871901 190.526766 
L 212.830478 190.365327 
L 213.789055 190.365327 
L 214.71671 188.434314 
L 215.675287 188.434314 
L 216.602942 188.907634 
L 217.561519 188.722801 
L 218.520096 188.884772 
L 219.385907 188.72222 
L 220.344484 189.668279 
L 221.272139 188.993222 
L 222.230716 187.162278 
L 223.158371 186.0139 
L 224.116948 182.17735 
L 225.075525 183.658583 
L 226.00318 182.717368 
L 226.961757 183.022953 
L 227.889412 180.562675 
L 228.847989 179.052526 
L 229.806566 181.07673 
L 231.630954 181.330537 
L 232.558609 183.961262 
L 233.517186 181.5067 
L 234.444841 180.989642 
L 235.403418 181.933231 
L 236.361995 184.178645 
L 237.28965 184.965736 
L 238.248227 182.167954 
L 239.175882 181.176073 
L 241.093036 180.471857 
L 241.958848 178.025577 
L 242.917425 176.733924 
L 243.84508 176.888194 
L 244.803657 176.269177 
L 245.731312 176.52589 
L 246.689889 174.644863 
L 247.648466 173.437731 
L 248.576121 169.562821 
L 249.534698 169.84041 
L 250.462353 168.304976 
L 251.42093 167.709645 
L 252.379506 169.478396 
L 253.27624 168.913531 
L 254.234817 169.834791 
L 255.162472 168.96468 
L 256.121049 166.257958 
L 257.048704 166.338895 
L 258.007281 163.311621 
L 258.965858 161.757491 
L 260.85209 162.724475 
L 261.779745 161.813048 
L 262.738322 160.473685 
L 263.696899 159.588413 
L 264.56271 156.980307 
L 265.521287 156.452351 
L 266.448942 155.623362 
L 267.407519 155.274039 
L 268.335174 153.831361 
L 269.293751 152.577731 
L 270.252328 152.133375 
L 271.179983 150.750759 
L 272.13856 151.293779 
L 273.066215 153.81993 
L 274.024792 152.364514 
L 274.983369 155.106207 
L 276.807757 158.738936 
L 277.735412 156.875975 
L 278.693989 161.745237 
L 279.621644 161.380559 
L 280.580221 159.938995 
L 281.538798 157.979162 
L 282.466453 162.209257 
L 283.42503 160.705017 
L 284.352685 158.370722 
L 285.311262 157.457648 
L 286.269839 152.447001 
L 288.094228 154.414487 
L 289.021883 152.541258 
L 289.98046 149.707197 
L 290.908115 151.586238 
L 291.866692 150.555657 
L 292.825269 149.798838 
L 293.752924 146.748605 
L 294.711501 145.086559 
L 295.639156 142.561425 
L 296.597733 140.301045 
L 297.55631 137.55136 
L 298.453043 139.352709 
L 299.41162 136.575415 
L 300.339275 138.369353 
L 301.297852 138.162336 
L 302.225507 134.996437 
L 303.184084 137.545741 
L 304.142661 136.924738 
L 305.070316 137.259918 
L 306.028893 135.798495 
L 306.956548 134.987864 
L 307.915125 134.302198 
L 308.873702 133.903567 
L 309.739513 133.903567 
L 310.69809 134.805065 
L 311.625745 140.323132 
L 312.584322 140.553786 
L 313.511977 138.713687 
L 314.470554 133.949436 
L 315.429131 134.36255 
L 316.356786 131.666775 
L 317.315363 134.869195 
L 318.243018 131.332903 
L 319.201595 127.150373 
L 320.160172 129.944764 
L 321.025983 130.043623 
L 321.98456 124.607656 
L 323.870792 132.899771 
L 324.798448 128.597652 
L 325.757024 133.220226 
L 326.715601 134.331163 
L 327.643256 124.566582 
L 328.601833 125.81348 
L 329.529488 120.989555 
L 330.488065 119.388733 
L 331.446642 123.425082 
L 332.312454 126.392537 
L 333.271031 125.996908 
L 334.198686 118.505689 
L 335.157263 117.350336 
L 336.084918 120.659267 
L 337.043495 118.109964 
L 338.002072 118.109964 
L 338.929727 120.183767 
L 339.888304 120.278751 
L 340.815959 124.560963 
L 341.774536 127.287593 
L 342.733113 126.388565 
L 343.629846 128.926244 
L 344.588423 124.981488 
L 345.516078 120.28001 
L 346.474655 119.183701 
L 347.40231 124.263177 
L 349.319464 110.238664 
L 351.205696 103.047846 
L 352.133351 102.086529 
L 353.091928 94.11918 
L 354.050505 96.689893 
L 354.916316 94.757959 
L 355.874893 95.533765 
L 356.802548 90.403238 
L 357.761125 88.471837 
L 358.68878 92.587089 
L 359.647357 97.736894 
L 360.605934 96.658506 
L 361.533589 104.295374 
L 362.492166 104.493333 
L 363.419821 106.746207 
L 364.378398 104.244467 
L 365.336975 108.670875 
L 366.202787 106.227695 
L 367.161363 96.125706 
L 368.089019 95.45801 
L 369.047595 102.379134 
L 369.975251 115.522879 
L 370.933828 124.363682 
L 371.892404 125.28407 
L 372.82006 141.984645 
L 373.778636 169.345632 
L 374.706292 159.233471 
L 375.664869 154.52342 
L 376.623445 149.141605 
L 377.489257 163.038246 
L 378.447834 161.259274 
L 379.375489 144.957815 
L 380.334066 142.681887 
L 381.261721 144.019603 
L 382.220298 145.051395 
L 383.178875 139.194515 
L 384.10653 139.873787 
L 385.065107 132.242683 
L 385.992762 131.464408 
L 386.951339 122.407918 
L 387.909916 122.939362 
L 388.806649 120.751684 
L 389.765226 118.842128 
L 390.692881 118.594812 
L 391.651458 116.942792 
L 392.579113 112.999877 
L 393.53769 114.79149 
L 394.496267 115.281085 
L 395.423922 111.093614 
L 396.382499 103.961696 
L 397.310154 101.766074 
L 398.268731 100.32359 
L 399.227308 101.232838 
L 400.093119 102.25969 
L 401.051696 97.833137 
L 401.979351 88.971119 
L 402.937928 89.486385 
L 403.865583 87.403088 
L 404.82416 81.103646 
L 405.782737 78.28242 
L 406.710392 77.383053 
L 407.668969 81.261742 
L 408.596624 81.99875 
L 409.555201 75.350275 
L 410.513778 70.544901 
L 411.37959 69.194446 
L 412.338167 71.781531 
L 413.265822 69.234503 
L 414.224399 68.092567 
L 415.152054 67.295692 
L 416.110631 62.095368 
L 417.069208 61.281201 
L 417.996863 63.103087 
L 418.95544 59.654562 
L 420.841672 56.465026 
L 422.66606 55.144698 
L 423.624637 53.121801 
L 424.552292 48.863662 
L 425.510869 48.927065 
L 426.438524 50.423991 
L 427.397101 49.965299 
L 428.355678 50.540287 
L 429.283333 49.930279 
L 430.24191 42.144857 
L 431.169565 41.953243 
L 432.128142 39.672955 
L 433.086719 46.404256 
L 433.983452 50.030155 
L 434.942029 50.049287 
L 435.869684 46.884115 
L 436.828261 46.028825 
L 437.755916 50.001045 
L 438.714493 51.653936 
L 439.67307 54.726256 
L 441.559302 72.432952 
L 442.486957 64.239743 
L 443.445534 65.94359 
L 444.404111 66.830509 
L 445.269922 80.819372 
L 446.228499 81.475007 
L 447.156154 75.72619 
L 448.114731 77.445391 
L 449.042386 75.895426 
L 450.000963 76.726304 
L 450.95954 74.420732 
L 451.887195 73.943876 
L 452.845772 80.701575 
L 453.773427 82.484518 
L 454.732004 78.848496 
L 455.690581 84.067565 
L 456.556393 80.137146 
L 457.51497 79.067913 
L 459.401202 84.572659 
L 460.328857 83.696736 
L 461.287434 78.731328 
L 462.246011 79.262433 
L 463.173666 74.708784 
L 464.132243 77.316308 
L 466.977052 74.239096 
L 466.977052 74.239096 
" style="fill:none;stroke:#4c72b0;stroke-linecap:round;stroke-width:1.75;"/>
   </g>
   <g id="line2d_36">
    <path clip-path="url(#p7d77120e20)" d="M 244.803657 316.98317 
L 245.731312 323.192957 
L 246.689889 326.042179 
L 247.648466 313.933083 
L 248.576121 295.769439 
L 249.534698 283.440199 
L 250.462353 288.354022 
L 251.42093 272.729365 
L 252.379506 265.050406 
L 253.27624 264.030674 
L 254.234817 274.017579 
L 255.162472 277.162795 
L 257.048704 290.92115 
L 258.965858 281.341015 
L 259.893513 279.827378 
L 260.85209 279.827378 
L 261.779745 280.561286 
L 262.738322 279.816092 
L 263.696899 282.017768 
L 264.56271 292.781398 
L 265.521287 290.804419 
L 266.448942 287.005505 
L 267.407519 279.96019 
L 268.335174 285.342006 
L 269.293751 287.936791 
L 272.13856 290.731909 
L 273.066215 286.856999 
L 274.024792 290.444875 
L 275.84918 290.444875 
L 276.807757 292.382331 
L 277.735412 295.409605 
L 278.693989 306.173235 
L 279.621644 304.789359 
L 280.580221 311.51664 
L 281.538798 309.954179 
L 282.466453 312.224635 
L 283.42503 311.430617 
L 284.352685 322.367843 
L 285.311262 322.367843 
L 286.269839 326.404193 
L 287.135651 327.505006 
L 288.094228 326.37857 
L 289.021883 328.580246 
L 289.98046 317.047785 
L 290.908115 318.910745 
L 291.866692 318.910745 
L 292.825269 323.754383 
L 293.752924 311.9144 
L 294.711501 315.374162 
L 295.639156 322.825906 
L 296.597733 322.825906 
L 298.453043 314.386254 
L 299.41162 293.893934 
L 300.339275 297.821204 
L 301.297852 289.985892 
L 302.225507 278.336651 
L 304.142661 281.348958 
L 305.070316 272.398738 
L 306.956548 278.358544 
L 307.915125 274.322195 
L 308.873702 277.116587 
L 309.739513 279.093567 
L 310.69809 274.97134 
L 311.625745 272.122118 
L 312.584322 256.425145 
L 313.511977 258.118723 
L 314.470554 236.357467 
L 315.429131 237.810558 
L 316.356786 226.575303 
L 317.315363 232.857841 
L 318.243018 235.186517 
L 319.201595 233.229493 
L 320.160172 229.467439 
L 321.025983 230.776529 
L 321.98456 218.891694 
L 322.912215 213.489875 
L 323.870792 211.707948 
L 324.798448 209.208001 
L 325.757024 217.231198 
L 326.715601 223.107694 
L 327.643256 211.150591 
L 328.601833 208.224888 
L 329.529488 197.801862 
L 330.488065 200.829136 
L 331.446642 195.447321 
L 332.312454 214.458602 
L 333.271031 219.840417 
L 334.198686 215.804068 
L 335.157263 210.008267 
L 336.084918 216.478787 
L 337.043495 224.800448 
L 338.002072 216.555946 
L 338.929727 213.913983 
L 339.888304 221.221193 
L 340.815959 229.334917 
L 341.774536 230.516281 
L 342.733113 257.156292 
L 343.629846 254.46536 
L 344.588423 249.366801 
L 345.516078 251.673293 
L 346.474655 253.489658 
L 347.40231 252.231571 
L 348.360887 260.815225 
L 349.319464 267.521824 
L 350.247119 264.062061 
L 351.205696 270.52023 
L 353.091928 305.806475 
L 354.050505 305.898746 
L 354.916316 316.621302 
L 355.874893 294.302591 
L 356.802548 306.330411 
L 357.761125 283.842076 
L 358.68878 256.965792 
L 359.647357 242.719779 
L 360.605934 238.316476 
L 361.533589 236.97101 
L 362.492166 203.589187 
L 363.419821 204.75166 
L 364.378398 205.545678 
L 365.336975 188.592943 
L 366.202787 181.716188 
L 367.161363 175.956181 
L 368.089019 157.70477 
L 369.047595 155.495393 
L 369.975251 154.552676 
L 370.933828 165.043512 
L 371.892404 143.064001 
L 372.82006 146.983716 
L 373.778636 152.162437 
L 374.706292 156.255651 
L 375.664869 155.696792 
L 376.623445 152.750067 
L 377.489257 164.97202 
L 378.447834 160.328085 
L 379.375489 165.074269 
L 380.334066 160.752097 
L 381.261721 159.803228 
L 382.220298 149.52372 
L 383.178875 149.279455 
L 385.065107 139.054195 
L 385.992762 139.480339 
L 386.951339 143.292185 
L 387.909916 133.399586 
L 388.806649 139.986935 
L 389.765226 134.455645 
L 390.692881 138.963861 
L 391.651458 138.579228 
L 392.579113 152.611103 
L 393.53769 159.306223 
L 394.496267 181.60614 
L 395.423922 185.516603 
L 396.382499 171.594775 
L 397.310154 161.456943 
L 398.268731 159.593983 
L 399.227308 164.975798 
L 400.093119 172.510368 
L 401.979351 174.441479 
L 402.937928 180.57895 
L 403.865583 181.148804 
L 404.82416 154.720217 
L 405.782737 153.352325 
L 406.710392 155.22691 
L 407.668969 165.039976 
L 408.596624 163.541112 
L 409.555201 168.285263 
L 410.513778 159.20872 
L 411.37959 164.138091 
L 412.338167 157.298147 
L 413.265822 158.970752 
L 414.224399 150.885993 
L 415.152054 147.607431 
L 416.110631 153.980642 
L 417.069208 154.447666 
L 417.996863 158.557009 
L 418.95544 149.870863 
L 419.883095 154.614626 
L 420.841672 150.947313 
L 421.800249 141.813229 
L 422.66606 127.092879 
L 423.624637 127.092879 
L 424.552292 126.055274 
L 425.510869 128.005711 
L 426.438524 130.715436 
L 427.397101 131.0294 
L 428.355678 131.932206 
L 429.283333 128.252349 
L 430.24191 123.464267 
L 431.169565 131.20629 
L 432.128142 128.659457 
L 433.086719 135.522359 
L 433.983452 124.553698 
L 434.942029 127.93882 
L 436.828261 118.430031 
L 437.755916 105.426703 
L 438.714493 103.781803 
L 439.67307 104.122698 
L 440.600725 102.634975 
L 441.559302 104.827787 
L 442.486957 106.601285 
L 443.445534 111.248756 
L 444.404111 114.11958 
L 445.269922 115.361538 
L 446.228499 115.54361 
L 448.114731 110.380049 
L 449.042386 114.037481 
L 450.000963 113.574138 
L 450.95954 112.550338 
L 451.887195 113.034363 
L 452.845772 113.139131 
L 453.773427 114.888992 
L 454.732004 113.109827 
L 456.556393 97.479842 
L 457.51497 98.700487 
L 458.442625 97.47495 
L 459.401202 101.606573 
L 460.328857 99.021427 
L 461.287434 101.205908 
L 462.246011 112.785449 
L 463.173666 107.255176 
L 464.132243 93.330539 
L 465.059898 92.140312 
L 466.018475 87.064324 
L 466.977052 88.527248 
L 467.842863 73.560308 
L 468.80144 75.126838 
L 469.729095 73.005518 
L 470.687672 76.606618 
L 471.615327 77.916241 
L 472.573904 84.765049 
L 473.532481 89.906087 
L 474.460136 89.622395 
L 476.346368 97.340151 
L 477.304945 89.196784 
L 478.263522 86.864379 
L 480.118832 81.405598 
L 481.046487 77.660981 
L 482.005064 81.733319 
L 482.932719 72.593954 
L 483.891296 72.348382 
L 484.849873 67.010401 
L 485.777528 67.14583 
L 486.736105 72.544646 
L 487.66376 71.092523 
L 489.580914 66.348325 
L 490.446725 64.780439 
L 491.405302 61.726622 
L 492.332957 63.477888 
L 493.291534 61.055293 
L 494.21919 61.480323 
L 495.177766 53.379531 
L 496.136343 61.526628 
L 497.063998 56.71612 
L 498.022575 52.498037 
L 498.950231 49.673663 
L 499.908807 49.050142 
L 500.867384 55.858796 
L 501.733196 53.509341 
L 502.691773 55.927721 
L 503.619428 54.503982 
L 504.578005 60.497403 
L 505.50566 58.791425 
L 506.464237 58.483418 
L 507.422814 72.639387 
L 508.350469 76.704605 
L 509.309046 68.655495 
L 510.236701 73.675248 
L 511.195278 72.659101 
L 512.153855 73.366853 
L 513.019666 63.693042 
L 513.978243 69.679779 
L 514.905898 70.42691 
L 515.864475 69.017605 
L 516.79213 68.069511 
L 517.750707 71.789038 
L 518.709284 80.093069 
L 519.636939 91.682152 
L 520.595516 88.912317 
L 521.523171 85.049516 
L 522.481748 82.31194 
L 523.440325 91.027534 
L 554.485849 96.073491 
L 555.413504 92.517341 
L 556.372081 95.128982 
L 557.330658 89.940283 
L 558.196469 91.694891 
L 559.155046 94.497614 
L 560.082701 92.412669 
L 561.041278 95.362252 
L 561.968933 94.090361 
L 562.92751 98.896073 
L 563.886087 94.319174 
L 564.813742 90.470952 
L 565.772319 85.170994 
L 566.699974 77.480313 
L 567.658551 74.873613 
L 567.658551 74.873613 
" style="fill:none;stroke:#55a868;stroke-linecap:round;stroke-width:1.75;"/>
   </g>
   <g id="line2d_37">
    <path clip-path="url(#p7d77120e20)" d="M 60.385824 307.585398 
L 61.251635 313.639946 
L 63.137867 309.097921 
L 64.096444 304.824136 
L 65.024099 302.205956 
L 65.982676 304.722129 
L 66.941253 309.366694 
L 68.827485 312.372124 
L 69.75514 306.813855 
L 70.713717 309.663077 
L 71.672294 301.205939 
L 72.569027 299.896848 
L 73.527604 297.347545 
L 74.455259 300.413132 
L 75.413836 300.413132 
L 76.341491 301.067701 
L 77.300068 302.413167 
L 78.258645 301.029291 
L 79.1863 302.393696 
L 80.144877 295.373907 
L 81.072532 300.891974 
L 82.031109 296.048335 
L 82.989686 284.576565 
L 83.855498 286.637679 
L 84.814075 282.870394 
L 85.74173 283.374955 
L 86.700307 282.865114 
L 87.627962 282.865114 
L 88.586539 278.786238 
L 89.545116 279.162443 
L 90.472771 280.12158 
L 91.431348 285.01414 
L 92.359003 275.10919 
L 93.31758 277.393934 
L 94.276157 276.914365 
L 95.141968 273.115451 
L 96.100545 265.805965 
L 97.0282 262.318545 
L 97.986777 254.727789 
L 98.914432 257.665213 
L 100.831586 245.630855 
L 101.759241 246.707208 
L 102.717818 256.339461 
L 103.645473 258.057064 
L 104.60405 252.273614 
L 105.562627 248.398703 
L 106.428438 254.258925 
L 107.387015 251.491124 
L 108.31467 246.451125 
L 109.273247 250.362121 
L 110.200902 244.471191 
L 111.159479 246.513705 
L 112.118056 238.166808 
L 113.045711 239.219766 
L 114.004288 242.179762 
L 114.931943 238.912437 
L 115.89052 230.476902 
L 116.849097 216.803456 
L 117.745831 225.695504 
L 118.704407 231.077319 
L 119.632063 237.939157 
L 120.590639 228.969465 
L 121.518295 228.464903 
L 122.476871 222.97212 
L 123.435448 218.756363 
L 124.363104 217.921271 
L 125.32168 224.735205 
L 126.249336 223.282113 
L 128.166489 224.227252 
L 129.032301 224.515013 
L 129.990878 223.536501 
L 130.918533 218.788767 
L 131.87711 215.250053 
L 133.763342 223.471645 
L 134.721919 227.965766 
L 135.649574 233.745099 
L 136.608151 234.432605 
L 138.494383 228.480112 
L 139.45296 224.181044 
L 140.318771 225.549905 
L 141.277348 226.650718 
L 142.205003 224.454177 
L 143.16358 229.379915 
L 144.091235 234.863301 
L 145.049812 234.51979 
L 146.008389 226.060472 
L 146.936044 229.899928 
L 147.894621 229.643312 
L 148.822276 231.918853 
L 149.780853 230.895538 
L 150.73943 229.225306 
L 151.605241 229.289872 
L 152.563818 226.324402 
L 153.491473 224.461442 
L 155.377705 212.386542 
L 156.336282 218.559808 
L 157.294859 215.076747 
L 158.222514 217.116161 
L 159.181091 217.435502 
L 160.108746 209.093691 
L 161.067323 211.159697 
L 162.0259 211.879026 
L 162.922634 216.065479 
L 163.881211 219.544326 
L 164.808866 219.313672 
L 165.767443 225.079926 
L 166.695098 228.025391 
L 167.653675 238.479271 
L 168.612252 234.124452 
L 169.539907 233.713954 
L 170.498484 230.539143 
L 172.384716 239.400918 
L 173.343292 218.070261 
L 174.209104 218.720423 
L 175.167681 226.298925 
L 176.095336 229.111383 
L 177.053913 229.528954 
L 177.981568 221.105237 
L 178.940145 224.047311 
L 179.898722 229.044735 
L 181.784954 237.187279 
L 182.712609 231.00389 
L 183.671186 233.745583 
L 184.629763 228.998817 
L 185.495574 233.886872 
L 186.454151 226.967395 
L 188.340383 232.416489 
L 189.268038 234.373512 
L 190.226615 242.633175 
L 191.185192 237.044343 
L 192.112847 241.498262 
L 193.071424 237.329052 
L 194.957656 238.475541 
L 195.916233 233.340122 
L 196.782045 225.356111 
L 197.740621 229.011701 
L 198.668277 225.156553 
L 199.626853 226.079169 
L 200.554509 226.549438 
L 201.513086 212.398409 
L 202.471662 214.247129 
L 203.399318 217.706891 
L 204.357894 229.381319 
L 205.28555 235.986299 
L 206.244126 222.602551 
L 207.202703 224.100591 
L 208.099437 227.29531 
L 209.058014 215.047007 
L 209.985669 219.579587 
L 210.944246 225.016329 
L 211.871901 222.78937 
L 212.830478 225.450707 
L 213.789055 230.069068 
L 214.71671 233.214284 
L 215.675287 234.021573 
L 216.602942 238.865212 
L 217.561519 228.870412 
L 218.520096 225.811267 
L 219.385907 223.994903 
L 220.344484 223.411341 
L 221.272139 224.564612 
L 222.230716 222.320021 
L 223.158371 217.19148 
L 224.116948 217.19148 
L 225.075525 219.870932 
L 226.00318 221.522177 
L 226.961757 223.915516 
L 227.889412 225.73188 
L 228.847989 219.441447 
L 229.806566 221.779762 
L 230.672377 222.370443 
L 231.630954 224.762377 
L 232.558609 226.775297 
L 233.517186 227.438827 
L 234.444841 232.147909 
L 235.403418 232.296948 
L 236.361995 242.135588 
L 237.28965 248.783724 
L 238.248227 249.003867 
L 239.175882 247.877431 
L 240.134459 254.48241 
L 241.093036 247.089468 
L 241.958848 235.825199 
L 242.917425 235.825199 
L 243.84508 236.007998 
L 244.803657 236.007998 
L 245.731312 239.73387 
L 246.689889 231.862958 
L 247.648466 233.624298 
L 248.576121 236.365991 
L 249.534698 234.622282 
L 250.462353 234.622282 
L 251.42093 227.974146 
L 252.379506 212.107064 
L 253.27624 210.974767 
L 254.234817 208.490852 
L 256.121049 227.002076 
L 257.048704 230.657667 
L 258.007281 223.73819 
L 258.965858 224.776133 
L 259.893513 224.776133 
L 260.85209 219.394318 
L 261.779745 207.446661 
L 262.738322 212.683021 
L 263.696899 209.747486 
L 264.56271 212.653669 
L 265.521287 212.653669 
L 266.448942 206.692264 
L 267.407519 197.535801 
L 268.335174 195.282928 
L 269.293751 196.359282 
L 270.252328 203.580711 
L 271.179983 202.27162 
L 272.13856 197.810387 
L 273.066215 201.381844 
L 274.024792 201.381844 
L 274.983369 196.283285 
L 275.84918 200.965485 
L 276.807757 200.965485 
L 277.735412 170.612001 
L 278.693989 184.158302 
L 279.621644 186.385261 
L 280.580221 181.716672 
L 281.538798 176.457885 
L 282.466453 170.645519 
L 283.42503 171.994812 
L 284.352685 181.412976 
L 285.311262 183.083208 
L 286.269839 158.888071 
L 287.135651 162.375491 
L 288.094228 157.364844 
L 289.021883 142.985292 
L 289.98046 136.577691 
L 290.908115 136.059664 
L 291.866692 130.165295 
L 292.825269 133.144569 
L 293.752924 129.230521 
L 294.711501 138.057713 
L 295.639156 135.854536 
L 296.597733 144.370815 
L 297.55631 144.69374 
L 298.453043 142.730275 
L 299.41162 113.479736 
L 300.339275 114.656304 
L 301.297852 115.2512 
L 302.225507 114.638092 
L 302.225507 114.638092 
" style="fill:none;stroke:#c44e52;stroke-linecap:round;stroke-width:1.75;"/>
   </g>
   <g id="line2d_38">
    <path clip-path="url(#p7d77120e20)" d="M 254.234817 297.945782 
L 255.162472 306.202006 
L 257.048704 326.176009 
L 258.007281 320.911167 
L 258.965858 319.961427 
L 259.893513 316.235555 
L 260.85209 317.965412 
L 261.779745 326.935104 
L 263.696899 326.935104 
L 265.521287 336.182045 
L 266.448942 317.345668 
L 267.407519 307.658391 
L 268.335174 314.11656 
L 269.293751 304.801856 
L 270.252328 306.364317 
L 271.179983 309.593425 
L 272.13856 297.484329 
L 273.066215 304.403806 
L 274.024792 289.87289 
L 274.983369 286.147018 
L 275.84918 280.380764 
L 276.807757 288.625266 
L 277.735412 282.415479 
L 278.693989 290.121272 
L 279.621644 291.430362 
L 280.580221 296.812177 
L 281.538798 298.325814 
L 282.466453 290.51351 
L 283.42503 290.51351 
L 284.352685 287.822578 
L 285.311262 290.371882 
L 286.269839 301.135512 
L 287.135651 297.67575 
L 288.094228 294.446641 
L 289.021883 303.528463 
L 289.98046 296.076719 
L 290.908115 304.149466 
L 291.866692 309.961832 
L 292.825269 309.961832 
L 293.752924 311.062646 
L 294.711501 316.69478 
L 295.639156 319.244084 
L 296.597733 313.862269 
L 297.55631 313.862269 
L 298.453043 304.174992 
L 299.41162 308.211341 
L 300.339275 308.211341 
L 301.297852 290.598128 
L 302.225507 301.899935 
L 303.184084 306.111818 
L 304.142661 314.184565 
L 305.070316 310.032888 
L 306.028893 317.680751 
L 306.956548 311.626203 
L 307.915125 314.317135 
L 308.873702 300.071122 
L 309.739513 300.071122 
L 311.625745 304.579291 
L 312.584322 290.048375 
L 313.511977 286.322503 
L 314.470554 275.943264 
L 315.429131 280.217049 
L 316.356786 278.654588 
L 317.315363 266.545492 
L 318.243018 272.60004 
L 319.201595 260.144962 
L 320.160172 259.044149 
L 321.025983 260.120502 
L 321.98456 264.523805 
L 323.870792 259.795494 
L 324.798448 266.400473 
L 325.757024 260.027262 
L 326.715601 260.027262 
L 327.643256 263.406523 
L 328.601833 273.0938 
L 329.529488 259.471067 
L 330.488065 235.843557 
L 331.446642 228.697204 
L 332.312454 249.455634 
L 333.271031 220.393803 
L 334.198686 234.016536 
L 335.157263 215.063185 
L 430.24191 183.001011 
L 431.169565 187.515524 
L 432.128142 188.420897 
L 433.086719 193.49519 
L 433.983452 186.281268 
L 434.942029 189.510377 
L 435.869684 199.120785 
L 436.828261 195.799793 
L 437.755916 211.474001 
L 438.714493 203.541719 
L 439.67307 207.079464 
L 440.600725 215.99791 
L 441.559302 232.206178 
L 442.486957 245.235856 
L 443.445534 227.798757 
L 444.404111 237.058632 
L 445.269922 255.552515 
L 446.228499 255.552515 
L 447.156154 247.004898 
L 448.114731 248.457989 
L 449.042386 241.966497 
L 450.000963 249.011811 
L 450.95954 233.759484 
L 451.887195 226.705645 
L 452.845772 223.832302 
L 453.773427 228.030138 
L 454.732004 226.615941 
L 455.690581 227.990033 
L 456.556393 219.151264 
L 457.51497 200.311884 
L 458.442625 193.533261 
L 459.401202 194.571882 
L 460.328857 181.835632 
L 461.287434 185.961104 
L 462.246011 189.301568 
L 463.173666 171.182776 
L 464.132243 166.743872 
L 465.059898 166.145876 
L 466.018475 164.019373 
L 466.977052 162.435019 
L 467.842863 165.198751 
L 468.80144 154.36513 
L 469.729095 147.716994 
L 470.687672 148.134564 
L 472.573904 124.755775 
L 473.532481 126.341146 
L 474.460136 128.997494 
L 475.418713 127.562324 
L 476.346368 130.988859 
L 477.304945 132.738817 
L 478.263522 134.035653 
L 479.160255 130.104798 
L 480.118832 132.446504 
L 487.66376 144.387235 
L 488.622337 146.157633 
L 489.580914 143.481571 
L 490.446725 140.218654 
L 491.405302 144.22599 
L 492.332957 148.715655 
L 493.291534 164.988004 
L 494.21919 171.006709 
L 495.177766 182.624903 
L 496.136343 169.708517 
L 497.063998 167.669103 
L 498.022575 175.497198 
L 498.950231 177.053362 
L 500.867384 183.929101 
L 501.733196 175.545877 
L 502.691773 181.302638 
L 503.619428 168.911933 
L 505.50566 194.543886 
L 506.464237 191.558073 
L 508.350469 197.356296 
L 509.309046 205.134404 
L 510.236701 196.710688 
L 511.195278 201.374918 
L 512.153855 189.861347 
L 513.019666 193.389841 
L 513.978243 190.276059 
L 514.905898 196.452522 
L 515.864475 229.985418 
L 516.79213 224.33047 
L 517.750707 231.562846 
L 518.709284 246.004541 
L 519.636939 230.876115 
L 520.595516 229.492239 
L 521.523171 228.469698 
L 522.481748 233.424014 
L 523.440325 223.14964 
L 524.337058 198.931447 
L 525.295635 207.811435 
L 526.22329 202.107809 
L 527.181867 203.673127 
L 528.109522 185.395222 
L 529.068099 177.433055 
L 530.026676 177.433055 
L 530.954331 178.002909 
L 531.912908 172.81329 
L 532.840563 171.771665 
L 533.79914 156.985829 
L 534.757717 156.985829 
L 535.623529 151.517216 
L 536.582105 147.656352 
L 537.509761 142.780213 
L 538.468338 142.484847 
L 539.395993 141.89775 
L 540.35457 141.616432 
L 541.313146 151.700499 
L 542.240802 151.336306 
L 543.199378 167.24078 
L 544.127034 159.70621 
L 545.085611 164.782731 
L 546.044187 160.932813 
L 546.909999 164.547475 
L 547.868576 169.755694 
L 548.796231 169.172133 
L 549.754808 170.90199 
L 550.682463 176.283805 
L 551.64104 176.539452 
L 552.599617 179.704528 
L 553.527272 181.839071 
L 554.485849 191.141811 
L 555.413504 194.542675 
L 556.372081 196.638517 
L 557.330658 200.598531 
L 558.196469 197.432922 
L 559.155046 199.79066 
L 560.082701 198.138398 
L 561.041278 167.780846 
L 561.968933 128.762674 
L 562.92751 147.093957 
L 563.886087 119.998353 
L 564.813742 122.304845 
L 565.772319 119.075737 
L 566.699974 114.534826 
L 567.658551 116.264683 
L 567.658551 116.264683 
" style="fill:none;stroke:#8172b2;stroke-linecap:round;stroke-width:1.75;"/>
   </g>
   <g id="patch_3">
    <path d="M 35.022188 351.0075 
L 35.022188 24.8475 
" style="fill:none;"/>
   </g>
   <g id="patch_4">
    <path d="M 593.022187 351.0075 
L 593.022187 24.8475 
" style="fill:none;"/>
   </g>
   <g id="patch_5">
    <path d="M 35.022188 351.0075 
L 593.022188 351.0075 
" style="fill:none;"/>
   </g>
   <g id="patch_6">
    <path d="M 35.022188 24.8475 
L 593.022188 24.8475 
" style="fill:none;"/>
   </g>
   <g id="text_20">
    <!-- Cumulative Returns over Time for different permnos -->
    <g style="fill:#262626;" transform="translate(130.544687 18.8475)scale(0.16 -0.16)">
     <defs>
      <path d="M 25.921875 0 
L 25.921875 63.140625 
L 2.34375 63.140625 
L 2.34375 71.578125 
L 59.078125 71.578125 
L 59.078125 63.140625 
L 35.40625 63.140625 
L 35.40625 0 
z
" id="ArialMT-84"/>
      <path d="M 8.6875 0 
L 8.6875 45.015625 
L 0.921875 45.015625 
L 0.921875 51.859375 
L 8.6875 51.859375 
L 8.6875 57.375 
Q 8.6875 62.59375 9.625 65.140625 
Q 10.890625 68.5625 14.078125 70.671875 
Q 17.28125 72.796875 23.046875 72.796875 
Q 26.765625 72.796875 31.25 71.921875 
L 29.9375 64.265625 
Q 27.203125 64.75 24.75 64.75 
Q 20.75 64.75 19.09375 63.03125 
Q 17.4375 61.328125 17.4375 56.640625 
L 17.4375 51.859375 
L 27.546875 51.859375 
L 27.546875 45.015625 
L 17.4375 45.015625 
L 17.4375 0 
z
" id="ArialMT-102"/>
      <path d="M 40.234375 0 
L 40.234375 6.546875 
Q 35.296875 -1.171875 25.734375 -1.171875 
Q 19.53125 -1.171875 14.328125 2.25 
Q 9.125 5.671875 6.265625 11.796875 
Q 3.421875 17.921875 3.421875 25.875 
Q 3.421875 33.640625 6 39.96875 
Q 8.59375 46.296875 13.765625 49.65625 
Q 18.953125 53.03125 25.34375 53.03125 
Q 30.03125 53.03125 33.6875 51.046875 
Q 37.359375 49.078125 39.65625 45.90625 
L 39.65625 71.578125 
L 48.390625 71.578125 
L 48.390625 0 
z
M 12.453125 25.875 
Q 12.453125 15.921875 16.640625 10.984375 
Q 20.84375 6.0625 26.5625 6.0625 
Q 32.328125 6.0625 36.34375 10.765625 
Q 40.375 15.484375 40.375 25.140625 
Q 40.375 35.796875 36.265625 40.765625 
Q 32.171875 45.75 26.171875 45.75 
Q 20.3125 45.75 16.375 40.96875 
Q 12.453125 36.1875 12.453125 25.875 
z
" id="ArialMT-100"/>
      <path d="M 6.59375 -19.875 
L 6.59375 51.859375 
L 14.59375 51.859375 
L 14.59375 45.125 
Q 17.4375 49.078125 21 51.046875 
Q 24.5625 53.03125 29.640625 53.03125 
Q 36.28125 53.03125 41.359375 49.609375 
Q 46.4375 46.1875 49.015625 39.953125 
Q 51.609375 33.734375 51.609375 26.3125 
Q 51.609375 18.359375 48.75 11.984375 
Q 45.90625 5.609375 40.453125 2.21875 
Q 35.015625 -1.171875 29 -1.171875 
Q 24.609375 -1.171875 21.109375 0.6875 
Q 17.625 2.546875 15.375 5.375 
L 15.375 -19.875 
z
M 14.546875 25.640625 
Q 14.546875 15.625 18.59375 10.84375 
Q 22.65625 6.0625 28.421875 6.0625 
Q 34.28125 6.0625 38.453125 11.015625 
Q 42.625 15.96875 42.625 26.375 
Q 42.625 36.28125 38.546875 41.203125 
Q 34.46875 46.140625 28.8125 46.140625 
Q 23.1875 46.140625 18.859375 40.890625 
Q 14.546875 35.640625 14.546875 25.640625 
z
" id="ArialMT-112"/>
     </defs>
     <use xlink:href="#ArialMT-67"/>
     <use x="72.216797" xlink:href="#ArialMT-117"/>
     <use x="127.832031" xlink:href="#ArialMT-109"/>
     <use x="211.132812" xlink:href="#ArialMT-117"/>
     <use x="266.748047" xlink:href="#ArialMT-108"/>
     <use x="288.964844" xlink:href="#ArialMT-97"/>
     <use x="344.580078" xlink:href="#ArialMT-116"/>
     <use x="372.363281" xlink:href="#ArialMT-105"/>
     <use x="394.580078" xlink:href="#ArialMT-118"/>
     <use x="444.580078" xlink:href="#ArialMT-101"/>
     <use x="500.195312" xlink:href="#ArialMT-32"/>
     <use x="527.978516" xlink:href="#ArialMT-82"/>
     <use x="600.195312" xlink:href="#ArialMT-101"/>
     <use x="655.810547" xlink:href="#ArialMT-116"/>
     <use x="683.59375" xlink:href="#ArialMT-117"/>
     <use x="739.208984" xlink:href="#ArialMT-114"/>
     <use x="772.509766" xlink:href="#ArialMT-110"/>
     <use x="828.125" xlink:href="#ArialMT-115"/>
     <use x="878.125" xlink:href="#ArialMT-32"/>
     <use x="905.908203" xlink:href="#ArialMT-111"/>
     <use x="961.523438" xlink:href="#ArialMT-118"/>
     <use x="1011.523438" xlink:href="#ArialMT-101"/>
     <use x="1067.138672" xlink:href="#ArialMT-114"/>
     <use x="1100.439453" xlink:href="#ArialMT-32"/>
     <use x="1126.472656" xlink:href="#ArialMT-84"/>
     <use x="1183.806641" xlink:href="#ArialMT-105"/>
     <use x="1206.023438" xlink:href="#ArialMT-109"/>
     <use x="1289.324219" xlink:href="#ArialMT-101"/>
     <use x="1344.939453" xlink:href="#ArialMT-32"/>
     <use x="1372.722656" xlink:href="#ArialMT-102"/>
     <use x="1400.505859" xlink:href="#ArialMT-111"/>
     <use x="1456.121094" xlink:href="#ArialMT-114"/>
     <use x="1489.421875" xlink:href="#ArialMT-32"/>
     <use x="1517.205078" xlink:href="#ArialMT-100"/>
     <use x="1572.820312" xlink:href="#ArialMT-105"/>
     <use x="1595.037109" xlink:href="#ArialMT-102"/>
     <use x="1621.070312" xlink:href="#ArialMT-102"/>
     <use x="1648.853516" xlink:href="#ArialMT-101"/>
     <use x="1704.46875" xlink:href="#ArialMT-114"/>
     <use x="1737.769531" xlink:href="#ArialMT-101"/>
     <use x="1793.384766" xlink:href="#ArialMT-110"/>
     <use x="1849" xlink:href="#ArialMT-116"/>
     <use x="1876.783203" xlink:href="#ArialMT-32"/>
     <use x="1904.566406" xlink:href="#ArialMT-112"/>
     <use x="1960.181641" xlink:href="#ArialMT-101"/>
     <use x="2015.796875" xlink:href="#ArialMT-114"/>
     <use x="2049.097656" xlink:href="#ArialMT-109"/>
     <use x="2132.398438" xlink:href="#ArialMT-110"/>
     <use x="2188.013672" xlink:href="#ArialMT-111"/>
     <use x="2243.628906" xlink:href="#ArialMT-115"/>
    </g>
   </g>
   <g id="legend_1">
    <g id="patch_7">
     <path d="M 43.422187 102.4875 
L 162.539062 102.4875 
Q 164.939063 102.4875 164.939063 100.0875 
L 164.939063 33.2475 
Q 164.939063 30.8475 162.539062 30.8475 
L 43.422187 30.8475 
Q 41.022188 30.8475 41.022188 33.2475 
L 41.022188 100.0875 
Q 41.022188 102.4875 43.422187 102.4875 
z
" style="fill:#eaeaf2;opacity:0.8;stroke:#cccccc;stroke-linejoin:miter;stroke-width:0.3;"/>
    </g>
    <g id="line2d_39">
     <path d="M 45.822187 40.0725 
L 69.822187 40.0725 
" style="fill:none;stroke:#4c72b0;stroke-linecap:round;stroke-width:1.75;"/>
    </g>
    <g id="line2d_40"/>
    <g id="text_21">
     <!-- permno: 10137 -->
     <g style="fill:#262626;" transform="translate(79.422188 44.2725)scale(0.12 -0.12)">
      <defs>
       <path d="M 9.03125 41.84375 
L 9.03125 51.859375 
L 19.046875 51.859375 
L 19.046875 41.84375 
z
M 9.03125 0 
L 9.03125 10.015625 
L 19.046875 10.015625 
L 19.046875 0 
z
" id="ArialMT-58"/>
      </defs>
      <use xlink:href="#ArialMT-112"/>
      <use x="55.615234" xlink:href="#ArialMT-101"/>
      <use x="111.230469" xlink:href="#ArialMT-114"/>
      <use x="144.53125" xlink:href="#ArialMT-109"/>
      <use x="227.832031" xlink:href="#ArialMT-110"/>
      <use x="283.447266" xlink:href="#ArialMT-111"/>
      <use x="339.0625" xlink:href="#ArialMT-58"/>
      <use x="366.845703" xlink:href="#ArialMT-32"/>
      <use x="394.628906" xlink:href="#ArialMT-49"/>
      <use x="450.244141" xlink:href="#ArialMT-48"/>
      <use x="505.859375" xlink:href="#ArialMT-49"/>
      <use x="561.474609" xlink:href="#ArialMT-51"/>
      <use x="617.089844" xlink:href="#ArialMT-55"/>
     </g>
    </g>
    <g id="line2d_41">
     <path d="M 45.822187 57.0825 
L 69.822187 57.0825 
" style="fill:none;stroke:#55a868;stroke-linecap:round;stroke-width:1.75;"/>
    </g>
    <g id="line2d_42"/>
    <g id="text_22">
     <!-- permno: 10051 -->
     <g style="fill:#262626;" transform="translate(79.422188 61.2825)scale(0.12 -0.12)">
      <use xlink:href="#ArialMT-112"/>
      <use x="55.615234" xlink:href="#ArialMT-101"/>
      <use x="111.230469" xlink:href="#ArialMT-114"/>
      <use x="144.53125" xlink:href="#ArialMT-109"/>
      <use x="227.832031" xlink:href="#ArialMT-110"/>
      <use x="283.447266" xlink:href="#ArialMT-111"/>
      <use x="339.0625" xlink:href="#ArialMT-58"/>
      <use x="366.845703" xlink:href="#ArialMT-32"/>
      <use x="394.628906" xlink:href="#ArialMT-49"/>
      <use x="450.244141" xlink:href="#ArialMT-48"/>
      <use x="505.859375" xlink:href="#ArialMT-48"/>
      <use x="561.474609" xlink:href="#ArialMT-53"/>
      <use x="617.089844" xlink:href="#ArialMT-49"/>
     </g>
    </g>
    <g id="line2d_43">
     <path d="M 45.822187 74.0925 
L 69.822187 74.0925 
" style="fill:none;stroke:#c44e52;stroke-linecap:round;stroke-width:1.75;"/>
    </g>
    <g id="line2d_44"/>
    <g id="text_23">
     <!-- permno: 10057 -->
     <g style="fill:#262626;" transform="translate(79.422188 78.2925)scale(0.12 -0.12)">
      <use xlink:href="#ArialMT-112"/>
      <use x="55.615234" xlink:href="#ArialMT-101"/>
      <use x="111.230469" xlink:href="#ArialMT-114"/>
      <use x="144.53125" xlink:href="#ArialMT-109"/>
      <use x="227.832031" xlink:href="#ArialMT-110"/>
      <use x="283.447266" xlink:href="#ArialMT-111"/>
      <use x="339.0625" xlink:href="#ArialMT-58"/>
      <use x="366.845703" xlink:href="#ArialMT-32"/>
      <use x="394.628906" xlink:href="#ArialMT-49"/>
      <use x="450.244141" xlink:href="#ArialMT-48"/>
      <use x="505.859375" xlink:href="#ArialMT-48"/>
      <use x="561.474609" xlink:href="#ArialMT-53"/>
      <use x="617.089844" xlink:href="#ArialMT-55"/>
     </g>
    </g>
    <g id="line2d_45">
     <path d="M 45.822187 91.1025 
L 69.822187 91.1025 
" style="fill:none;stroke:#8172b2;stroke-linecap:round;stroke-width:1.75;"/>
    </g>
    <g id="line2d_46"/>
    <g id="text_24">
     <!-- permno: 10028 -->
     <g style="fill:#262626;" transform="translate(79.422188 95.3025)scale(0.12 -0.12)">
      <use xlink:href="#ArialMT-112"/>
      <use x="55.615234" xlink:href="#ArialMT-101"/>
      <use x="111.230469" xlink:href="#ArialMT-114"/>
      <use x="144.53125" xlink:href="#ArialMT-109"/>
      <use x="227.832031" xlink:href="#ArialMT-110"/>
      <use x="283.447266" xlink:href="#ArialMT-111"/>
      <use x="339.0625" xlink:href="#ArialMT-58"/>
      <use x="366.845703" xlink:href="#ArialMT-32"/>
      <use x="394.628906" xlink:href="#ArialMT-49"/>
      <use x="450.244141" xlink:href="#ArialMT-48"/>
      <use x="505.859375" xlink:href="#ArialMT-48"/>
      <use x="561.474609" xlink:href="#ArialMT-50"/>
      <use x="617.089844" xlink:href="#ArialMT-56"/>
     </g>
    </g>
   </g>
  </g>
 </g>
 <defs>
  <clipPath id="p7d77120e20">
   <rect height="326.16" width="558" x="35.022188" y="24.8475"/>
  </clipPath>
 </defs>
</svg>
